<svg width="80" height="80" viewBox="0 0 80 80" fill="none" xmlns="http://www.w3.org/2000/svg">
<path d="M15.7812 3.75H64.2188C71.5625 3.75 77.5 9.6875 77.5 17.0312V62.9688C77.5 70.3125 71.5625 76.25 64.2188 76.25H15.7812C8.4375 76.25 2.5 70.3125 2.5 62.9688V17.0312C2.5 9.6875 8.4375 3.75 15.7812 3.75Z" fill="#470137"/>
<path d="M9.62497 54.625V22.625C9.59372 22.4375 9.74997 22.25 9.93747 22.2188C9.93747 22.2188 9.93747 22.2188 9.96872 22.2188C10.4375 22.1875 11.1562 22.1563 12.0625 22.1563C13 22.125 14.0625 22.125 15.3125 22.0937C16.5625 22.0625 17.875 22.0625 19.2812 22.0625C23.0937 22.0625 26.2812 22.75 28.7812 24.125C31.1875 25.4062 33.1562 27.375 34.4375 29.7813C35.6875 32.1875 36.3125 34.9375 36.3125 38.0625C36.3437 40.25 36.0312 42.4063 35.3437 44.4688C34.75 46.2188 33.8437 47.8438 32.6562 49.2812C31.5625 50.5938 30.25 51.7187 28.8125 52.625C27.4062 53.5 25.8437 54.1562 24.2187 54.5938C22.6562 55 21.0312 55.2188 19.4062 55.2188H15.875C14.625 55.2188 13.4375 55.2188 12.375 55.1875C11.2812 55.1563 10.4687 55.1562 9.93747 55.125C9.71872 55.125 9.62497 54.9375 9.62497 54.625ZM16.2187 28.25V49.0938C16.5625 49.0938 16.875 49.0938 17.1875 49.125C17.4687 49.1562 17.7812 49.1562 18.0625 49.1875C18.375 49.2187 18.7187 49.2188 19.0937 49.2188C20.5312 49.25 21.9687 49 23.3437 48.5C24.5937 48.0625 25.6875 47.3437 26.625 46.375C27.5625 45.375 28.2812 44.1875 28.7187 42.9063C29.2187 41.4063 29.4687 39.8125 29.4687 38.2188C29.5 36.7188 29.25 35.2188 28.75 33.8125C27.875 31.375 25.9062 29.5 23.4062 28.75C22.0625 28.3438 20.6875 28.125 19.2812 28.1562C18.6562 28.1562 18.125 28.1562 17.6875 28.1875C17.25 28.1875 16.75 28.2188 16.2187 28.25ZM64.3125 55.125H58.4687C58.3437 55.1562 58.1875 55.0938 58.0937 55C58 54.875 57.9375 54.75 57.9062 54.625C57.3125 52.125 56.8125 49.875 56.4062 47.9688C56 46.0312 55.6562 44.4063 55.4062 43.0625C55.1562 41.7188 54.9375 40.5938 54.75 39.6562C54.5937 38.7188 54.4375 37.9375 54.3437 37.2813H54.3125C54 38.6563 53.7187 40 53.4375 41.2813C53.1875 42.5625 52.875 43.875 52.5625 45.1875C52.25 46.5 51.9062 47.9375 51.5 49.5C51.125 51.0625 50.6875 52.7813 50.2187 54.625C50.1562 54.9688 50 55.125 49.7187 55.125H43.875C43.7187 55.1562 43.5625 55.0938 43.4375 55.0313C43.3437 54.9375 43.2812 54.8125 43.2187 54.6875L37.125 30.5312C37.0312 30.25 37.1562 30.125 37.5 30.125H43.4062C43.6875 30.125 43.8437 30.2188 43.875 30.4375C44.5 33.1875 45.0312 35.5625 45.4375 37.5625C45.8437 39.5625 46.1875 41.25 46.4062 42.6562C46.625 44.0625 46.8437 45.2188 47 46.0938C47.1562 46.9688 47.2812 47.7188 47.375 48.2812H47.4687C47.5312 47.7812 47.5937 47.3125 47.6875 46.8125C47.8125 46.2188 47.9687 45.4375 48.1562 44.4688C48.3437 43.5 48.5625 42.375 48.8437 41.0625C49.125 39.75 49.4375 38.25 49.8125 36.5C50.1562 34.7813 50.6562 32.8125 51.25 30.5938C51.25 30.4688 51.3125 30.3125 51.375 30.1875C51.4062 30.125 51.5312 30.0938 51.7187 30.0938H57.8437C58.0312 30.0938 58.125 30.2188 58.1562 30.4375C58.6875 32.7188 59.125 34.7188 59.5 36.4375C59.8437 38.1562 60.1562 39.6875 60.4375 41.0313C60.6875 42.3438 60.9062 43.5 61.0312 44.4375C61.1562 45.4062 61.3125 46.1875 61.4375 46.8437C61.5312 47.375 61.625 47.9062 61.6562 48.4375H61.75C61.9062 47.8125 62.0312 47.0625 62.1562 46.2187C62.2812 45.375 62.4375 44.4375 62.6562 43.375C62.8437 42.3125 63.0625 41.1562 63.3125 39.875C63.5312 38.5938 63.8437 37.1875 64.1875 35.5938C64.5312 34.0313 64.9062 32.3125 65.3437 30.4688C65.4062 30.1875 65.5312 30.0625 65.75 30.0625H71.2187C71.5 30.0625 71.5937 30.2188 71.5312 30.5L64.7812 54.5938C64.75 54.7188 64.6875 54.8438 64.5937 54.9375C64.5937 55.0938 64.4687 55.1562 64.3125 55.125Z" fill="#FF61F6"/>
</svg>
