<svg xmlns="http://www.w3.org/2000/svg">



      <!--Banner Github Icon-->
      <symbol class="banner__icons" xmlns="http://www.w3.org/2000/svg" fill="#8120cf" viewBox="0 0 16 16" id="github">
        <path d="M7.999 0C3.582 0 0 3.596 0 8.032a8.031 8.031 0 0 0 5.472 7.621c.4.074.546-.174.546-.387 0-.191-.007-.696-.011-1.366-2.225.485-2.695-1.077-2.695-1.077-.363-.928-.888-1.175-.888-1.175-.727-.498.054-.488.054-.488.803.057 1.225.828 1.225.828.714 1.227 1.873.873 2.329.667.072-.519.279-.873.508-1.074-1.776-.203-3.644-.892-3.644-3.969 0-.877.312-1.594.824-2.156-.083-.203-.357-1.02.078-2.125 0 0 .672-.216 2.2.823a7.633 7.633 0 0 1 2.003-.27 7.65 7.65 0 0 1 2.003.271c1.527-1.039 2.198-.823 2.198-.823.436 1.106.162 1.922.08 2.125.513.562.822 1.279.822 2.156 0 3.085-1.87 3.764-3.652 3.963.287.248.543.738.543 1.487 0 1.074-.01 1.94-.01 2.203 0 .215.144.465.55.386A8.032 8.032 0 0 0 16 8.032C16 3.596 12.418 0 7.999 0z"></path>
      </symbol>

      <!--Banner Twitter X Icon-->
      <symbol class="banner__icons" xmlns="http://www.w3.org/2000/svg" fill="#8120cf" enable-background="new 0 0 72 72" viewBox="0 0 72 72" id="twitter-x">
        <switch><g><path d="M42.5,31.2L66,6h-6L39.8,27.6L24,6H4l24.6,33.6L4,66
        h6l21.3-22.8L48,66h20L42.5,31.2z M12.9,10h8l38.1,52h-8L12.9,10z"></path></g>
        </switch>
      </symbol>

      <!--Banner LinkedIn Icon-->
      <symbol class="banner__icons" xmlns="http://www.w3.org/2000/svg" fill="#8120cf" viewBox="0 0 100 100" id="linkedin">
        <path d="M55.35,44.17h.07v-.11Zm0,0h.07v-.11Zm0,0h.07v-.11Zm0,0h.07v-.11Zm0,0h.07v-.11Zm0,0h.07v-.11Zm0,0h.07v-.11Zm0,0h.07v-.11Zm0,0h.07v-.11Zm0,0h.07v-.11Zm0,0h.07v-.11Zm0,0h.07v-.11Zm0,0h.07v-.11Zm0,0h.07v-.11Zm0,0h.07v-.11Zm0,0h.07v-.11ZM50.8,3.77A45.67,45.67,0,1,0,96.47,49.44,45.72,45.72,0,0,0,50.8,3.77ZM39.38,70a.77.77,0,0,1-.77.76h-8.8a.76.76,0,0,1-.76-.76V40.43a.76.76,0,0,1,.76-.77h8.8a.77.77,0,0,1,.77.77ZM33.9,35.71a5.53,5.53,0,1,1,5.53-5.53A5.52,5.52,0,0,1,33.9,35.71ZM76.62,70a.77.77,0,0,1-.77.76h-8.8a.76.76,0,0,1-.76-.76V54.11c0-4.18-1.49-7-5.23-7a5.65,5.65,0,0,0-5.3,3.78,7.12,7.12,0,0,0-.34,2.52V70a.77.77,0,0,1-.77.77h-8.8a.76.76,0,0,1-.76-.77c0-4.22.11-24.71,0-29.53a.76.76,0,0,1,.76-.77h8.78a.76.76,0,0,1,.77.77v3.63a10.26,10.26,0,0,1,9.31-5.13c6.79,0,11.89,4.44,11.89,14Zm-21.2-25.8v-.11l-.07.11Zm-.07,0h.07v-.11Zm0,0h.07v-.11Zm0,0h.07v-.11Zm0,0h.07v-.11Zm0,0h.07v-.11Zm0,0h.07v-.11Zm0,0h.07v-.11Zm0,0h.07v-.11Zm0,0h.07v-.11Zm0,0h.07v-.11Zm0,0h.07v-.11Zm0,0h.07v-.11Zm0,0h.07v-.11Zm0,0h.07v-.11Z"></path>
      </symbol>

      <!--Banner Double Arrow Icon-->
      <symbol width="25" height="22" viewBox="0 0 25 22" fill="none" xmlns="http://www.w3.org/2000/svg" id="double-arrow">
        <path d="M17.4242 0.150002H10.606L18.1818 10.9L10.606 21.65H17.4242L25 10.9L17.4242 0.150002Z" fill="#F2DBB0" />
        <path d="M6.81818 0.150002H0L7.57576 10.9L0 21.65H6.81818L14.3939 10.9L6.81818 0.150002Z" fill="#F2DBB0" />
      </symbol>

      <!--White Github Icon-->
      <symbol style="width: 1.25rem;" xmlns="http://www.w3.org/2000/svg" viewBox="0 0 24 24" id="github-white">
        <path fill="#ffffff" d="M12 2A10 10 0 0 0 2 12c0 4.42 2.87 8.17 6.84 9.5c.5.08.66-.23.66-.5v-1.69c-2.77.6-3.36-1.34-3.36-1.34c-.46-1.16-1.11-1.47-1.11-1.47c-.91-.62.07-.6.07-.6c1 .07 1.53 1.03 1.53 1.03c.87 1.52 2.34 1.07 2.91.83c.09-.65.35-1.09.63-1.34c-2.22-.25-4.55-1.11-4.55-4.92c0-1.11.38-2 1.03-2.71c-.1-.25-.45-1.29.1-2.64c0 0 .84-.27 2.75 1.02c.79-.22 1.65-.33 2.5-.33s1.71.11 2.5.33c1.91-1.29 2.75-1.02 2.75-1.02c.55 1.35.2 2.39.1 2.64c.65.71 1.03 1.6 1.03 2.71c0 3.82-2.34 4.66-4.57 4.91c.36.31.69.92.69 1.85V21c0 .27.16.59.67.5C19.14 20.16 22 16.42 22 12A10 10 0 0 0 12 2" />
      </symbol>

      <!--Bottom Nav Portfolio Icon-->
      <symbol style="display: block; margin: 0 auto" xmlns="http://www.w3.org/2000/svg" width="48" height="48" viewBox="0 0 256 256" id="portfolio">
        <path fill="#341d54" d="M208 32H48a16 16 0 0 0-16 16v160a16 16 0 0 0 16 16h160a16 16 0 0 0 16-16V48a16 16 0 0 0-16-16m-24 16h24v40h-24Zm0 56h24v48h-24Zm-38 71.75a8 8 0 0 1-9.74-5.76c-2.63-10.26-13.06-18-24.25-18s-21.61 7.74-24.25 18a8 8 0 0 1-15.5-4a39.84 39.84 0 0 1 17.19-23.34a32 32 0 1 1 45.12 0A39.76 39.76 0 0 1 151.75 166a8 8 0 0 1-5.75 9.75M208 208h-24v-40h24zm-80-88a16 16 0 1 1-16-16a16 16 0 0 1 16 16" />
      </symbol>

      <!--Bottom Nav Home Icon-->
      <symbol style="display: block; margin: 0 auto" xmlns="http://www.w3.org/2000/svg" width="48" height="48" viewBox="0 0 256 256" id="home">
        <path fill="#341d54" d="M232 48v40a8 8 0 0 1-16 0V56h-32a8 8 0 0 1 0-16h40a8 8 0 0 1 8 8M72 200H40v-32a8 8 0 0 0-16 0v40a8 8 0 0 0 8 8h40a8 8 0 0 0 0-16m152-40a8 8 0 0 0-8 8v32h-32a8 8 0 0 0 0 16h40a8 8 0 0 0 8-8v-40a8 8 0 0 0-8-8M32 96a8 8 0 0 0 8-8V56h32a8 8 0 0 0 0-16H32a8 8 0 0 0-8 8v40a8 8 0 0 0 8 8m145.92-12.69L132 57.05a8 8 0 0 0-7.94 0L78.08 83.31a4 4 0 0 0 0 7L128 118.79l49.92-28.53a4 4 0 0 0 0-6.95M64 107.53V160a8 8 0 0 0 4 7l46 26.27a4 4 0 0 0 6-3.47v-57.16l-50-28.58a4 4 0 0 0-6 3.47M192 160v-52.47a4 4 0 0 0-6-3.47l-50 28.58v57.11a4 4 0 0 0 6 3.47L188 167a8 8 0 0 0 4-7" />
      </symbol>

      <!--Bottom Nav Contact Icon-->
      <symbol style="display: block; margin: 0 auto" xmlns="http://www.w3.org/2000/svg" width="48" height="48" viewBox="0 0 256 256" id="contact">
        <path fill="#341d54" d="M232 96a16 16 0 0 0-16-16h-32V48a16 16 0 0 0-16-16H40a16 16 0 0 0-16 16v128a8 8 0 0 0 13 6.22L72 154v30a16 16 0 0 0 16 16h93.59L219 230.22a8 8 0 0 0 5 1.78a8 8 0 0 0 8-8Zm-42.55 89.78a8 8 0 0 0-5-1.78H88v-32h80a16 16 0 0 0 16-16V96h32v111.25Z" />
      </symbol>

      <!--HTML5 Skills Icon-->
       <symbol  viewBox="0 0 80 80" xmlns="http://www.w3.org/2000/svg" id="html-icon">
        <rect width="79.5116" height="80" fill="#291C3A"/>
        <path d="M11.8254 71.1725L5.61047 1.03809H73.901L67.6792 71.1618L39.7141 78.9618L11.8254 71.1725Z" fill="#E44D26"/>
        <path d="M39.7557 73L62.3532 66.6962L67.6699 6.77246H39.7557V73Z" fill="#F16529"/>
        <path d="M39.7558 32.7844H28.4428L27.6613 23.9756H39.7558V15.3744H18.3181L18.5231 17.6819L20.624 41.3863H39.7558V32.7844ZM39.7558 55.1238L39.7179 55.1344L30.197 52.5469L29.5889 45.6875H21.006L22.2036 59.1931L39.7167 64.0844L39.7558 64.0738V55.1238Z" fill="#EBEBEB"/>
        <path d="M39.726 32.7844V41.3863H50.2532L49.2611 52.5419L39.726 55.1313V64.0806L57.2527 59.1931L57.3812 57.74L59.3902 35.0944L59.5982 32.7844H57.2949H39.726ZM39.726 15.3744V23.9756H60.3766L60.548 22.0431L60.9381 17.6819L61.1425 15.3744H39.726Z" fill="white"/>
      </symbol>

      <!--CSS3 Skills Icon-->
      <symbol width="81" height="80" viewBox="0 0 81 80" fill="none" xmlns="http://www.w3.org/2000/svg" id="css3">
        <rect width="79.5116" height="80" transform="translate(0.541992)" fill="#291C3A"/>
        <path d="M12.2289 71.3269L5.98352 0.844971H74.6119L68.3603 71.3162L40.2561 79.1556L12.2289 71.3269Z" fill="#1572B6"/>
        <path d="M40.2983 73.1638L63.0082 66.8288L68.351 6.60754H40.2983V73.1638Z" fill="#33A9DC"/>
        <path d="M40.2983 32.1431H51.6673L52.4524 23.2912H40.2983V14.6469H61.8422L61.636 16.9662L59.524 40.7875H40.2983V32.1431Z" fill="white"/>
        <path d="M40.3493 54.5931L40.3114 54.6043L30.7433 52.005L30.1315 45.1106H21.5082L22.7114 58.6837L40.3102 63.5981L40.3493 63.5868V54.5931Z" fill="#EBEBEB"/>
        <path d="M50.9367 40.4219L49.9018 51.9981L40.3195 54.6006V63.5944L57.9325 58.6831L58.0617 57.2225L59.5563 40.4219H50.9367Z" fill="white"/>
        <path d="M40.3276 14.6469V23.2912H19.5751L19.403 21.3487L19.0116 16.9662L18.806 14.6469H40.3276ZM40.2984 32.1444V40.7887H30.8508L30.6787 38.8462L30.2868 34.4637L30.0818 32.1444H40.2984Z" fill="#EBEBEB"/>
      </symbol>

      <!--JavaScript Skills Icon-->
      <symbol width="80" height="80" viewBox="0 0 80 80" fill="none" xmlns="http://www.w3.org/2000/svg" id="javaScript">
        <g clip-path="url(#clip0_38_55)">
          <rect width="79.2176" height="80" transform="translate(0.0841064)" fill="#291C3A"/>
          <path d="M78.8625 0.596436H0.0841064L7.4694 71.5893L39.4693 79.6347L71.4692 71.5893L78.8625 0.596436Z" fill="#E6A329"/>
          <path d="M39.4694 6.38049V73.6187L65.3966 67.1076L71.7039 6.38049H39.4694Z" fill="#F1BF22"/>
          <path d="M60.096 15.0897H20.2315L17.4548 41.6675L17.512 41.5022H51.379L50.276 52.7475L39.4703 55.5031L28.5052 52.7031L27.8484 45.8968H17.895L19.3149 59.4968L39.4703 64.5688L59.6347 59.4968L62.4113 32.8017H26.4686L26.9299 23.9075H51.8674L52.2404 29.0035H62.278L60.096 15.0897Z" fill="white"/>
          <path d="M39.4783 15.0897H20.2315L17.4548 41.6675L17.512 41.5022H39.4773V32.8319H27.8704L28.3317 23.9377H39.4783V15.0897ZM27.8704 45.9013H17.894L19.3139 59.4942L39.4693 64.5608V55.5155L28.5042 52.7084L27.8704 45.9013Z" fill="#EBEBEB"/>
        </g>
        <defs>
          <clippath id="clip0_38_55">
          <rect width="79.2176" height="80" fill="white" transform="translate(0.0841064)"/>
          </clippath>
        </defs>
      </symbol>

      <!--Sass Skills Icon-->
      <symbol width="121" height="80" viewBox="0 0 121 80" fill="none" xmlns="http://www.w3.org/2000/svg" id="sass">
        <g clip-path="url(#clip0_38_69)">
        <path d="M103.999 45.9584C99.7921 45.9794 96.1492 46.875 93.094 48.2086C91.9659 46.2294 90.8378 44.5 90.65 43.2086C90.4385 41.7086 90.1799 40.7917 90.4385 39.0003C90.6967 37.2084 91.8719 34.6667 91.8719 34.4584C91.8481 34.2709 91.6131 33.3542 89.1926 33.3334C86.7721 33.3125 84.6802 33.75 84.4452 34.3125C84.2102 34.875 83.7401 36.1667 83.4346 37.5C83.0116 39.4584 78.5932 46.3959 76.0785 50.0417C75.2559 48.625 74.5508 47.375 74.4096 46.3748C74.1983 44.875 73.9395 43.9582 74.1983 42.1667C74.4568 40.3748 75.6319 37.8334 75.6319 37.625C75.6084 37.4375 75.3734 36.5209 72.9529 36.5C70.532 36.4792 68.4405 36.9167 68.2055 37.4792C67.9705 38.0417 67.712 39.375 67.1949 40.6667C66.7011 41.9584 60.8256 53.5417 59.298 56.5625C58.5224 58.1042 57.8411 59.3334 57.3473 60.1667C56.8538 61 57.3238 60.2292 57.2768 60.3125C56.8538 61.0209 56.6188 61.4167 56.6188 61.4167V61.4378C56.2897 61.9586 55.9372 62.4584 55.7724 62.4584C55.6549 62.4584 55.4199 61.0625 55.8194 59.1461C56.689 55.125 58.8042 48.8544 58.7809 48.6253C58.7809 48.5211 59.1802 47.4167 57.4176 46.8544C55.7019 46.2919 55.0911 47.2294 54.9499 47.2294C54.8089 47.2294 54.6913 47.5628 54.6913 47.5628C54.6913 47.5628 56.595 40.5005 51.0485 40.5005C47.5702 40.5005 42.7758 43.8546 40.4021 46.9171C38.898 47.6463 35.7017 49.1878 32.3174 50.8338C31.0248 51.4588 29.6852 52.1255 28.416 52.7296L28.1578 52.4792C21.4362 46.125 9.00357 41.625 9.52061 33.0834C9.70863 29.9792 10.9307 21.7917 33.3989 11.875C51.8011 3.75004 66.5369 5.97921 69.0984 10.9375C72.7412 18.0209 61.2252 31.1875 42.0947 33.0834C34.8091 33.8125 30.978 31.3125 30.0146 30.375C29.0041 29.3959 28.863 29.3542 28.487 29.5417C27.876 29.8334 28.252 30.7084 28.487 31.2292C29.0511 32.5417 31.4013 34.875 35.3966 36.0417C38.8982 37.0625 47.4532 37.625 57.7941 34.0834C69.3806 30.1042 78.4289 19.0625 75.7732 9.83338C73.0704 0.437545 55.4909 -2.64579 38.8749 2.58338C28.9803 5.70838 18.2634 10.5834 10.5547 16.9792C1.3889 24.5625 -0.068231 31.1875 0.542823 33.9375C2.68175 43.75 17.9344 50.1459 24.0449 54.875C23.7394 55.0207 23.4573 55.1665 23.1988 55.2917C20.1435 56.6248 8.51002 62.0209 5.59577 67.729C2.30548 74.1873 6.11281 78.8334 8.65104 79.4584C16.5007 81.3959 24.5384 77.9167 28.8863 72.1875C33.2105 66.4584 32.6936 59.0209 30.696 55.625L30.6252 55.5L33.0224 54.25C34.5738 53.4375 36.1014 52.6875 37.4408 52.0415C36.689 53.854 36.1482 55.9998 35.8664 59.1248C35.5374 62.7917 37.2295 67.5415 39.4622 69.4165C40.4493 70.2288 41.6244 70.2498 42.353 70.2498C44.9382 70.2498 46.1133 68.3538 47.4059 66.0832C49.0041 63.3123 50.4142 60.104 50.4142 60.104C50.4142 60.104 48.6516 68.7915 53.4695 68.7915C55.2321 68.7915 56.9948 66.7707 57.7939 65.729V65.7498C57.7939 65.7498 57.8409 65.6873 57.9349 65.5415C58.0335 65.4123 58.1275 65.2803 58.2169 65.1459V65.1042C58.922 64.0209 60.4966 61.5417 62.8468 57.4375C65.8783 52.1459 68.7928 45.5209 68.7928 45.5209C68.7928 45.5209 69.0749 47.1459 69.9444 49.8125C70.4612 51.3961 71.5893 53.125 72.4589 54.8125C71.7538 55.6875 71.3308 56.1878 71.3308 56.1878L71.3543 56.2086C70.7905 56.8753 70.1557 57.5838 69.4979 58.2919C67.1007 60.8336 64.2334 63.7296 63.8574 64.563C63.4108 65.5419 63.5049 66.2711 64.3744 66.8546C65.009 67.2713 66.1371 67.3544 67.3357 67.2713C69.4979 67.1461 71.002 66.6671 71.7541 66.3753C72.9292 66.0003 74.2688 65.4378 75.5614 64.6044C77.9116 63.063 79.3453 60.8755 79.2042 57.9588C79.1337 56.3546 78.5462 54.7713 77.8176 53.2713C78.0291 53.0005 78.2409 52.7294 78.4522 52.438C82.1655 47.6253 85.0328 42.3338 85.0328 42.3338C85.0328 42.3338 85.3148 43.9588 86.1843 46.6255C86.6307 47.9796 87.524 49.459 88.323 50.9173C84.8447 53.4382 82.659 56.3548 81.907 58.2715C80.5204 61.8132 81.6014 63.4173 83.6461 63.7923C84.5625 63.959 85.8788 63.584 86.8657 63.209C88.0878 62.8548 89.5684 62.2505 90.9318 61.3548C93.282 59.8132 95.5382 57.6673 95.4207 54.7715C95.3502 53.4382 94.9506 52.1257 94.4101 50.8757C97.3713 49.7923 101.202 49.1673 106.067 49.6882C116.526 50.7715 118.594 56.5632 118.194 58.9798C117.795 61.3967 115.609 62.7298 114.88 63.1465C114.152 63.5423 113.917 63.6884 113.987 63.9798C114.081 64.4175 114.41 64.3965 115.045 64.3134C115.914 64.1882 120.544 62.3342 120.732 57.8761C121.014 52.1461 114.88 45.8961 103.999 45.9584ZM23.3398 70.0625C19.885 73.4167 15.0201 74.6875 12.9519 73.6042C10.7192 72.4584 11.5886 67.5209 15.8427 63.9584C18.4279 61.7917 21.7887 59.7917 23.9979 58.5625C24.4914 58.2917 25.2435 57.8961 26.1366 57.4167C26.2776 57.3336 26.3716 57.2917 26.3716 57.2917C26.5361 57.2084 26.7241 57.1042 26.9121 57C28.4868 62.0834 26.9826 66.5417 23.3398 70.0625ZM48.6045 54.8334C47.4059 57.4375 44.8677 64.125 43.3401 63.75C42.0237 63.4375 41.2249 58.375 43.0813 53.375C44.0214 50.854 46.0191 47.8542 47.1942 46.6873C49.0981 44.8123 51.166 44.1873 51.6833 44.9582C52.2944 45.9584 49.3566 53.2084 48.6045 54.8334ZM69.4509 63.6667C68.9338 63.8961 68.4638 64.0625 68.2523 63.9378C68.0878 63.8544 68.4636 63.5419 68.4636 63.5419C68.4636 63.5419 71.0723 61.0628 72.1064 59.9169C72.6939 59.2505 73.399 58.4796 74.1511 57.6044V57.8544C74.1513 60.8542 70.908 62.8542 69.4509 63.6667ZM85.5261 60.4167C85.15 60.1667 85.1973 59.3959 86.4661 56.9792C86.9599 56.0209 88.0878 54.4167 90.0385 52.8959C90.2735 53.5209 90.4147 54.1248 90.391 54.6875C90.3677 58.4375 87.3595 59.8334 85.5261 60.4167Z" fill="#CF649A"/>
        </g>
        <defs>
        <clippath id="clip0_38_69">
        <rect width="120.331" height="80" fill="white" transform="translate(0.448853)"/>
        </clippath>
        </defs>
      </symbol>

      <!--React Skills Icon-->
      <symbol width="91" height="80" viewBox="0 0 91 80" fill="none" xmlns="http://www.w3.org/2000/svg" id="react">
        <rect width="90.248" height="80" transform="translate(-0.00854492)" fill="#291C3A"/>
        <path d="M45.1153 47.125C49.5544 47.125 53.1531 43.935 53.1531 40C53.1531 36.065 49.5544 32.875 45.1153 32.875C40.6762 32.875 37.0776 36.065 37.0776 40C37.0776 43.935 40.6762 47.125 45.1153 47.125Z" fill="#61DAFB"/>
        <path d="M75.6446 28.25C74.0935 27.75 72.4718 27.25 70.7797 26.8125C71.2027 25.3125 71.5552 23.8125 71.8373 22.375C73.3179 14.125 71.6963 8.3125 67.1839 6.0625C65.8442 5.375 64.3636 5.0625 62.6715 5.0625C57.736 5.0625 51.461 8.3125 45.1154 13.75C38.7698 8.3125 32.4948 5.0625 27.5594 5.0625C25.8672 5.0625 24.3866 5.375 23.047 6.0625C18.5346 8.375 16.9129 14.1875 18.3936 22.375C18.6756 23.8125 19.0281 25.3125 19.4511 26.8125C17.759 27.25 16.1374 27.6875 14.5862 28.25C5.77294 31.25 0.978516 35.375 0.978516 40C0.978516 44.625 5.84345 48.75 14.5862 51.75C16.1374 52.25 17.759 52.75 19.4511 53.1875C19.0281 54.6875 18.6756 56.1875 18.3936 57.625C16.9129 65.875 18.5346 71.6875 23.047 73.9375C24.3866 74.625 25.8672 74.9375 27.5594 74.9375C32.5653 74.9375 38.8404 71.6875 45.1154 66.25C51.461 71.6875 57.736 74.9375 62.6715 74.9375C64.3636 74.9375 65.8442 74.625 67.1839 73.9375C71.6963 71.625 73.3179 65.8125 71.8373 57.625C71.5552 56.1875 71.2027 54.6875 70.7797 53.1875C72.4718 52.75 74.0935 52.3125 75.6446 51.75C84.4579 48.75 89.2523 44.625 89.2523 40C89.2523 35.375 84.4579 31.25 75.6446 28.25ZM65.2097 9.1875C68.1004 10.6875 69.0875 15.3125 67.8889 21.875C67.6774 23.1875 67.3249 24.5625 66.9018 26C63.2355 25.25 59.3577 24.75 55.2683 24.4375C52.8711 21.4375 50.4034 18.75 47.9357 16.3125C53.1531 11.75 58.4411 8.625 62.742 8.625C63.6585 8.625 64.5046 8.8125 65.2097 9.1875ZM57.313 46.25C56.0439 48.25 54.5632 50.25 53.0121 52.25C50.4034 52.4375 47.7946 52.5 45.1154 52.5C42.3657 52.5 39.7569 52.4375 37.2187 52.25C35.6676 50.25 34.2574 48.25 32.9883 46.25C31.6487 44.1875 30.3796 42.0625 29.2515 40C30.3796 37.9375 31.6487 35.8125 32.9883 33.75C34.2574 31.75 35.7381 29.75 37.2892 27.75C39.8979 27.5625 42.5067 27.5 45.1859 27.5C47.9357 27.5 50.5444 27.5625 53.0826 27.75C54.6337 29.75 56.0439 31.75 57.313 33.75C58.6526 35.8125 59.9217 37.9375 61.0498 40C59.8512 42.0625 58.6526 44.125 57.313 46.25ZM63.165 44.1875C64.2226 46.375 65.0687 48.5 65.8442 50.625C63.447 51.125 60.9088 51.5 58.2296 51.8125C59.0756 50.625 59.9922 49.375 60.7678 48.0625C61.6139 46.75 62.3894 45.4375 63.165 44.1875ZM45.1154 61.125C43.4233 59.5 41.8016 57.75 40.2505 55.9375C41.8721 56 43.4938 56.0625 45.1154 56.0625C46.737 56.0625 48.3587 56 49.9803 55.9375C48.4292 57.75 46.8076 59.5 45.1154 61.125ZM32.0013 51.75C29.322 51.4375 26.7838 51.0625 24.3866 50.5625C25.1621 48.5 26.0082 46.3125 27.0658 44.125C27.8414 45.375 28.617 46.6875 29.463 47.9375C30.3091 49.3125 31.1552 50.5 32.0013 51.75ZM27.0658 35.8125C26.0082 33.625 25.1621 31.5 24.3866 29.375C26.7838 28.875 29.322 28.5 32.0013 28.1875C31.1552 29.375 30.2386 30.625 29.463 31.9375C28.617 33.25 27.8414 34.5625 27.0658 35.8125ZM45.1154 18.875C46.8076 20.5 48.4292 22.25 49.9803 24.0625C48.3587 24 46.737 23.9375 45.1154 23.9375C43.4938 23.9375 41.8721 24 40.2505 24.0625C41.8016 22.25 43.4233 20.5 45.1154 18.875ZM60.7678 32L58.2296 28.25C60.9088 28.5625 63.447 28.9375 65.8442 29.4375C65.0687 31.5 64.2226 33.6875 63.165 35.875C62.3894 34.5625 61.6139 33.25 60.7678 32ZM22.3419 21.875C21.1433 15.3125 22.1304 10.6875 25.0211 9.1875C25.7262 8.8125 26.5723 8.625 27.4889 8.625C31.7192 8.625 37.0072 11.6875 42.2952 16.3125C39.8274 18.6875 37.3597 21.4375 34.9625 24.4375C30.8731 24.75 26.9953 25.3125 23.329 26C22.9059 24.5625 22.6239 23.1875 22.3419 21.875ZM4.92686 40C4.92686 37.0625 8.94572 33.9375 15.9963 31.625C17.4065 31.125 18.9576 30.6875 20.5087 30.3125C21.6368 33.4375 23.047 36.75 24.7391 40.0625C23.047 43.375 21.5663 46.625 20.5087 49.75C10.7789 47.25 4.92686 43.5 4.92686 40ZM25.0211 70.8125C22.1304 69.3125 21.1433 64.6875 22.3419 58.125C22.5534 56.8125 22.9059 55.4375 23.329 54C26.9953 54.75 30.8731 55.25 34.9625 55.5625C37.3597 58.5625 39.8274 61.25 42.2952 63.6875C37.0777 68.25 31.7897 71.375 27.4889 71.375C26.5723 71.375 25.7262 71.1875 25.0211 70.8125ZM67.8889 58.125C69.0875 64.6875 68.1004 69.3125 65.2097 70.8125C64.5046 71.1875 63.6585 71.375 62.742 71.375C58.5116 71.375 53.2236 68.3125 47.9357 63.6875C50.4034 61.3125 52.8711 58.5625 55.2683 55.5625C59.3577 55.25 63.2355 54.6875 66.9018 54C67.3249 55.4375 67.6069 56.8125 67.8889 58.125ZM74.2345 48.375C72.8243 48.875 71.2732 49.3125 69.7221 49.6875C68.594 46.5625 67.1839 43.25 65.4917 39.9375C67.1839 36.625 68.6645 33.375 69.7221 30.25C79.4519 32.75 85.3039 36.5 85.3039 40C85.3039 42.9375 81.2146 46.0625 74.2345 48.375Z" fill="#61DAFB"/>
      </symbol>

      <!--Vue Skills Icon-->
      <symbol width="81" height="80" viewBox="0 0 81 80" fill="none" xmlns="http://www.w3.org/2000/svg" id="vue">
        <path d="M68.4877 0H12.4877C5.86025 0 0.487671 5.37258 0.487671 12V68C0.487671 74.6274 5.86025 80 12.4877 80H68.4877C75.1151 80 80.4877 74.6274 80.4877 68V12C80.4877 5.37258 75.1151 0 68.4877 0Z" fill="#291C3A"/>
        <path d="M47.3627 21.875L40.4877 33.9062L33.6127 21.875H10.4877L40.4877 73.9062L70.4877 21.875H47.3627Z" fill="#42B883"/>
        <path d="M47.3627 21.875L40.4877 33.9062L33.6127 21.875H22.5189L40.4877 53.125L58.4564 21.875H47.3627Z" fill="#35495E"/>
      </symbol>

</svg>
