<svg width="80" height="80" viewBox="0 0 80 80" fill="none" xmlns="http://www.w3.org/2000/svg">
<rect width="79.5116" height="80" fill="#291C3A"/>
<path d="M11.8254 71.1725L5.61047 1.03809H73.901L67.6792 71.1618L39.7141 78.9618L11.8254 71.1725Z" fill="#E44D26"/>
<path d="M39.7557 73L62.3532 66.6962L67.6699 6.77246H39.7557V73Z" fill="#F16529"/>
<path d="M39.7558 32.7844H28.4428L27.6613 23.9756H39.7558V15.3744H18.3181L18.5231 17.6819L20.624 41.3863H39.7558V32.7844ZM39.7558 55.1238L39.7179 55.1344L30.197 52.5469L29.5889 45.6875H21.006L22.2036 59.1931L39.7167 64.0844L39.7558 64.0738V55.1238Z" fill="#EBEBEB"/>
<path d="M39.726 32.7844V41.3863H50.2532L49.2611 52.5419L39.726 55.1313V64.0806L57.2527 59.1931L57.3812 57.74L59.3902 35.0944L59.5982 32.7844H57.2949H39.726ZM39.726 15.3744V23.9756H60.3766L60.548 22.0431L60.9381 17.6819L61.1425 15.3744H39.726Z" fill="white"/>
</svg>
