<svg width="80" height="80" viewBox="0 0 80 80" fill="none" xmlns="http://www.w3.org/2000/svg">
<g clip-path="url(#clip0_38_55)">
<rect width="79.2176" height="80" transform="translate(0.0841064)" fill="#291C3A"/>
<path d="M78.8625 0.596436H0.0841064L7.4694 71.5893L39.4693 79.6347L71.4692 71.5893L78.8625 0.596436Z" fill="#E6A329"/>
<path d="M39.4694 6.38049V73.6187L65.3966 67.1076L71.7039 6.38049H39.4694Z" fill="#F1BF22"/>
<path d="M60.096 15.0897H20.2315L17.4548 41.6675L17.512 41.5022H51.379L50.276 52.7475L39.4703 55.5031L28.5052 52.7031L27.8484 45.8968H17.895L19.3149 59.4968L39.4703 64.5688L59.6347 59.4968L62.4113 32.8017H26.4686L26.9299 23.9075H51.8674L52.2404 29.0035H62.278L60.096 15.0897Z" fill="white"/>
<path d="M39.4783 15.0897H20.2315L17.4548 41.6675L17.512 41.5022H39.4773V32.8319H27.8704L28.3317 23.9377H39.4783V15.0897ZM27.8704 45.9013H17.894L19.3139 59.4942L39.4693 64.5608V55.5155L28.5042 52.7084L27.8704 45.9013Z" fill="#EBEBEB"/>
</g>
<defs>
<clipPath id="clip0_38_55">
<rect width="79.2176" height="80" fill="white" transform="translate(0.0841064)"/>
</clipPath>
</defs>
</svg>
