<svg width="91" height="80" viewBox="0 0 91 80" fill="none" xmlns="http://www.w3.org/2000/svg">
<rect width="90.248" height="80" transform="translate(-0.00854492)" fill="#291C3A"/>
<path d="M45.1153 47.125C49.5544 47.125 53.1531 43.935 53.1531 40C53.1531 36.065 49.5544 32.875 45.1153 32.875C40.6762 32.875 37.0776 36.065 37.0776 40C37.0776 43.935 40.6762 47.125 45.1153 47.125Z" fill="#61DAFB"/>
<path d="M75.6446 28.25C74.0935 27.75 72.4718 27.25 70.7797 26.8125C71.2027 25.3125 71.5552 23.8125 71.8373 22.375C73.3179 14.125 71.6963 8.3125 67.1839 6.0625C65.8442 5.375 64.3636 5.0625 62.6715 5.0625C57.736 5.0625 51.461 8.3125 45.1154 13.75C38.7698 8.3125 32.4948 5.0625 27.5594 5.0625C25.8672 5.0625 24.3866 5.375 23.047 6.0625C18.5346 8.375 16.9129 14.1875 18.3936 22.375C18.6756 23.8125 19.0281 25.3125 19.4511 26.8125C17.759 27.25 16.1374 27.6875 14.5862 28.25C5.77294 31.25 0.978516 35.375 0.978516 40C0.978516 44.625 5.84345 48.75 14.5862 51.75C16.1374 52.25 17.759 52.75 19.4511 53.1875C19.0281 54.6875 18.6756 56.1875 18.3936 57.625C16.9129 65.875 18.5346 71.6875 23.047 73.9375C24.3866 74.625 25.8672 74.9375 27.5594 74.9375C32.5653 74.9375 38.8404 71.6875 45.1154 66.25C51.461 71.6875 57.736 74.9375 62.6715 74.9375C64.3636 74.9375 65.8442 74.625 67.1839 73.9375C71.6963 71.625 73.3179 65.8125 71.8373 57.625C71.5552 56.1875 71.2027 54.6875 70.7797 53.1875C72.4718 52.75 74.0935 52.3125 75.6446 51.75C84.4579 48.75 89.2523 44.625 89.2523 40C89.2523 35.375 84.4579 31.25 75.6446 28.25ZM65.2097 9.1875C68.1004 10.6875 69.0875 15.3125 67.8889 21.875C67.6774 23.1875 67.3249 24.5625 66.9018 26C63.2355 25.25 59.3577 24.75 55.2683 24.4375C52.8711 21.4375 50.4034 18.75 47.9357 16.3125C53.1531 11.75 58.4411 8.625 62.742 8.625C63.6585 8.625 64.5046 8.8125 65.2097 9.1875ZM57.313 46.25C56.0439 48.25 54.5632 50.25 53.0121 52.25C50.4034 52.4375 47.7946 52.5 45.1154 52.5C42.3657 52.5 39.7569 52.4375 37.2187 52.25C35.6676 50.25 34.2574 48.25 32.9883 46.25C31.6487 44.1875 30.3796 42.0625 29.2515 40C30.3796 37.9375 31.6487 35.8125 32.9883 33.75C34.2574 31.75 35.7381 29.75 37.2892 27.75C39.8979 27.5625 42.5067 27.5 45.1859 27.5C47.9357 27.5 50.5444 27.5625 53.0826 27.75C54.6337 29.75 56.0439 31.75 57.313 33.75C58.6526 35.8125 59.9217 37.9375 61.0498 40C59.8512 42.0625 58.6526 44.125 57.313 46.25ZM63.165 44.1875C64.2226 46.375 65.0687 48.5 65.8442 50.625C63.447 51.125 60.9088 51.5 58.2296 51.8125C59.0756 50.625 59.9922 49.375 60.7678 48.0625C61.6139 46.75 62.3894 45.4375 63.165 44.1875ZM45.1154 61.125C43.4233 59.5 41.8016 57.75 40.2505 55.9375C41.8721 56 43.4938 56.0625 45.1154 56.0625C46.737 56.0625 48.3587 56 49.9803 55.9375C48.4292 57.75 46.8076 59.5 45.1154 61.125ZM32.0013 51.75C29.322 51.4375 26.7838 51.0625 24.3866 50.5625C25.1621 48.5 26.0082 46.3125 27.0658 44.125C27.8414 45.375 28.617 46.6875 29.463 47.9375C30.3091 49.3125 31.1552 50.5 32.0013 51.75ZM27.0658 35.8125C26.0082 33.625 25.1621 31.5 24.3866 29.375C26.7838 28.875 29.322 28.5 32.0013 28.1875C31.1552 29.375 30.2386 30.625 29.463 31.9375C28.617 33.25 27.8414 34.5625 27.0658 35.8125ZM45.1154 18.875C46.8076 20.5 48.4292 22.25 49.9803 24.0625C48.3587 24 46.737 23.9375 45.1154 23.9375C43.4938 23.9375 41.8721 24 40.2505 24.0625C41.8016 22.25 43.4233 20.5 45.1154 18.875ZM60.7678 32L58.2296 28.25C60.9088 28.5625 63.447 28.9375 65.8442 29.4375C65.0687 31.5 64.2226 33.6875 63.165 35.875C62.3894 34.5625 61.6139 33.25 60.7678 32ZM22.3419 21.875C21.1433 15.3125 22.1304 10.6875 25.0211 9.1875C25.7262 8.8125 26.5723 8.625 27.4889 8.625C31.7192 8.625 37.0072 11.6875 42.2952 16.3125C39.8274 18.6875 37.3597 21.4375 34.9625 24.4375C30.8731 24.75 26.9953 25.3125 23.329 26C22.9059 24.5625 22.6239 23.1875 22.3419 21.875ZM4.92686 40C4.92686 37.0625 8.94572 33.9375 15.9963 31.625C17.4065 31.125 18.9576 30.6875 20.5087 30.3125C21.6368 33.4375 23.047 36.75 24.7391 40.0625C23.047 43.375 21.5663 46.625 20.5087 49.75C10.7789 47.25 4.92686 43.5 4.92686 40ZM25.0211 70.8125C22.1304 69.3125 21.1433 64.6875 22.3419 58.125C22.5534 56.8125 22.9059 55.4375 23.329 54C26.9953 54.75 30.8731 55.25 34.9625 55.5625C37.3597 58.5625 39.8274 61.25 42.2952 63.6875C37.0777 68.25 31.7897 71.375 27.4889 71.375C26.5723 71.375 25.7262 71.1875 25.0211 70.8125ZM67.8889 58.125C69.0875 64.6875 68.1004 69.3125 65.2097 70.8125C64.5046 71.1875 63.6585 71.375 62.742 71.375C58.5116 71.375 53.2236 68.3125 47.9357 63.6875C50.4034 61.3125 52.8711 58.5625 55.2683 55.5625C59.3577 55.25 63.2355 54.6875 66.9018 54C67.3249 55.4375 67.6069 56.8125 67.8889 58.125ZM74.2345 48.375C72.8243 48.875 71.2732 49.3125 69.7221 49.6875C68.594 46.5625 67.1839 43.25 65.4917 39.9375C67.1839 36.625 68.6645 33.375 69.7221 30.25C79.4519 32.75 85.3039 36.5 85.3039 40C85.3039 42.9375 81.2146 46.0625 74.2345 48.375Z" fill="#61DAFB"/>
</svg>
