<svg xmlns="http://www.w3.org/2000/svg">



      <!--Banner Github Icon-->
      <symbol class="banner__icons" xmlns="http://www.w3.org/2000/svg" fill="#8120cf" viewBox="0 0 16 16" id="github">
        <path d="M7.999 0C3.582 0 0 3.596 0 8.032a8.031 8.031 0 0 0 5.472 7.621c.4.074.546-.174.546-.387 0-.191-.007-.696-.011-1.366-2.225.485-2.695-1.077-2.695-1.077-.363-.928-.888-1.175-.888-1.175-.727-.498.054-.488.054-.488.803.057 1.225.828 1.225.828.714 1.227 1.873.873 2.329.667.072-.519.279-.873.508-1.074-1.776-.203-3.644-.892-3.644-3.969 0-.877.312-1.594.824-2.156-.083-.203-.357-1.02.078-2.125 0 0 .672-.216 2.2.823a7.633 7.633 0 0 1 2.003-.27 7.65 7.65 0 0 1 2.003.271c1.527-1.039 2.198-.823 2.198-.823.436 1.106.162 1.922.08 2.125.513.562.822 1.279.822 2.156 0 3.085-1.87 3.764-3.652 3.963.287.248.543.738.543 1.487 0 1.074-.01 1.94-.01 2.203 0 .215.144.465.55.386A8.032 8.032 0 0 0 16 8.032C16 3.596 12.418 0 7.999 0z"></path>
      </symbol>

      <!--Banner Twitter X Icon-->
      <symbol class="banner__icons" xmlns="http://www.w3.org/2000/svg" fill="#8120cf" enable-background="new 0 0 72 72" viewBox="0 0 72 72" id="twitter-x">
        <switch><g><path d="M42.5,31.2L66,6h-6L39.8,27.6L24,6H4l24.6,33.6L4,66
        h6l21.3-22.8L48,66h20L42.5,31.2z M12.9,10h8l38.1,52h-8L12.9,10z"></path></g>
        </switch>
      </symbol>

      <!--Banner LinkedIn Icon-->
      <symbol class="banner__icons" xmlns="http://www.w3.org/2000/svg" fill="#8120cf" viewBox="0 0 100 100" id="linkedin">
        <path d="M55.35,44.17h.07v-.11Zm0,0h.07v-.11Zm0,0h.07v-.11Zm0,0h.07v-.11Zm0,0h.07v-.11Zm0,0h.07v-.11Zm0,0h.07v-.11Zm0,0h.07v-.11Zm0,0h.07v-.11Zm0,0h.07v-.11Zm0,0h.07v-.11Zm0,0h.07v-.11Zm0,0h.07v-.11Zm0,0h.07v-.11Zm0,0h.07v-.11Zm0,0h.07v-.11ZM50.8,3.77A45.67,45.67,0,1,0,96.47,49.44,45.72,45.72,0,0,0,50.8,3.77ZM39.38,70a.77.77,0,0,1-.77.76h-8.8a.76.76,0,0,1-.76-.76V40.43a.76.76,0,0,1,.76-.77h8.8a.77.77,0,0,1,.77.77ZM33.9,35.71a5.53,5.53,0,1,1,5.53-5.53A5.52,5.52,0,0,1,33.9,35.71ZM76.62,70a.77.77,0,0,1-.77.76h-8.8a.76.76,0,0,1-.76-.76V54.11c0-4.18-1.49-7-5.23-7a5.65,5.65,0,0,0-5.3,3.78,7.12,7.12,0,0,0-.34,2.52V70a.77.77,0,0,1-.77.77h-8.8a.76.76,0,0,1-.76-.77c0-4.22.11-24.71,0-29.53a.76.76,0,0,1,.76-.77h8.78a.76.76,0,0,1,.77.77v3.63a10.26,10.26,0,0,1,9.31-5.13c6.79,0,11.89,4.44,11.89,14Zm-21.2-25.8v-.11l-.07.11Zm-.07,0h.07v-.11Zm0,0h.07v-.11Zm0,0h.07v-.11Zm0,0h.07v-.11Zm0,0h.07v-.11Zm0,0h.07v-.11Zm0,0h.07v-.11Zm0,0h.07v-.11Zm0,0h.07v-.11Zm0,0h.07v-.11Zm0,0h.07v-.11Zm0,0h.07v-.11Zm0,0h.07v-.11Zm0,0h.07v-.11Z"></path>
      </symbol>

      <!--Banner Double Arrow Icon-->
      <symbol width="25" height="22" viewBox="0 0 25 22" fill="none" xmlns="http://www.w3.org/2000/svg" id="double-arrow">
        <path d="M17.4242 0.150002H10.606L18.1818 10.9L10.606 21.65H17.4242L25 10.9L17.4242 0.150002Z" fill="#F2DBB0" />
        <path d="M6.81818 0.150002H0L7.57576 10.9L0 21.65H6.81818L14.3939 10.9L6.81818 0.150002Z" fill="#F2DBB0" />
      </symbol>

      <!--White Github Icon-->
      <symbol style="width: 1.25rem;" xmlns="http://www.w3.org/2000/svg" viewBox="0 0 24 24" id="github-white">
        <path fill="#ffffff" d="M12 2A10 10 0 0 0 2 12c0 4.42 2.87 8.17 6.84 9.5c.5.08.66-.23.66-.5v-1.69c-2.77.6-3.36-1.34-3.36-1.34c-.46-1.16-1.11-1.47-1.11-1.47c-.91-.62.07-.6.07-.6c1 .07 1.53 1.03 1.53 1.03c.87 1.52 2.34 1.07 2.91.83c.09-.65.35-1.09.63-1.34c-2.22-.25-4.55-1.11-4.55-4.92c0-1.11.38-2 1.03-2.71c-.1-.25-.45-1.29.1-2.64c0 0 .84-.27 2.75 1.02c.79-.22 1.65-.33 2.5-.33s1.71.11 2.5.33c1.91-1.29 2.75-1.02 2.75-1.02c.55 1.35.2 2.39.1 2.64c.65.71 1.03 1.6 1.03 2.71c0 3.82-2.34 4.66-4.57 4.91c.36.31.69.92.69 1.85V21c0 .27.16.59.67.5C19.14 20.16 22 16.42 22 12A10 10 0 0 0 12 2" />
      </symbol>

      <!--Bottom Nav Portfolio Icon-->
      <symbol style="display: block; margin: 0 auto" xmlns="http://www.w3.org/2000/svg" width="48" height="48" viewBox="0 0 256 256" id="portfolio">
        <path fill="#341d54" d="M208 32H48a16 16 0 0 0-16 16v160a16 16 0 0 0 16 16h160a16 16 0 0 0 16-16V48a16 16 0 0 0-16-16m-24 16h24v40h-24Zm0 56h24v48h-24Zm-38 71.75a8 8 0 0 1-9.74-5.76c-2.63-10.26-13.06-18-24.25-18s-21.61 7.74-24.25 18a8 8 0 0 1-15.5-4a39.84 39.84 0 0 1 17.19-23.34a32 32 0 1 1 45.12 0A39.76 39.76 0 0 1 151.75 166a8 8 0 0 1-5.75 9.75M208 208h-24v-40h24zm-80-88a16 16 0 1 1-16-16a16 16 0 0 1 16 16" />
      </symbol>

      <!--Bottom Nav Home Icon-->
      <symbol style="display: block; margin: 0 auto" xmlns="http://www.w3.org/2000/svg" width="48" height="48" viewBox="0 0 256 256" id="home">
        <path fill="#341d54" d="M232 48v40a8 8 0 0 1-16 0V56h-32a8 8 0 0 1 0-16h40a8 8 0 0 1 8 8M72 200H40v-32a8 8 0 0 0-16 0v40a8 8 0 0 0 8 8h40a8 8 0 0 0 0-16m152-40a8 8 0 0 0-8 8v32h-32a8 8 0 0 0 0 16h40a8 8 0 0 0 8-8v-40a8 8 0 0 0-8-8M32 96a8 8 0 0 0 8-8V56h32a8 8 0 0 0 0-16H32a8 8 0 0 0-8 8v40a8 8 0 0 0 8 8m145.92-12.69L132 57.05a8 8 0 0 0-7.94 0L78.08 83.31a4 4 0 0 0 0 7L128 118.79l49.92-28.53a4 4 0 0 0 0-6.95M64 107.53V160a8 8 0 0 0 4 7l46 26.27a4 4 0 0 0 6-3.47v-57.16l-50-28.58a4 4 0 0 0-6 3.47M192 160v-52.47a4 4 0 0 0-6-3.47l-50 28.58v57.11a4 4 0 0 0 6 3.47L188 167a8 8 0 0 0 4-7" />
      </symbol>

      <!--Bottom Nav Contact Icon-->
      <symbol style="display: block; margin: 0 auto" xmlns="http://www.w3.org/2000/svg" width="48" height="48" viewBox="0 0 256 256" id="contact">
        <path fill="#341d54" d="M232 96a16 16 0 0 0-16-16h-32V48a16 16 0 0 0-16-16H40a16 16 0 0 0-16 16v128a8 8 0 0 0 13 6.22L72 154v30a16 16 0 0 0 16 16h93.59L219 230.22a8 8 0 0 0 5 1.78a8 8 0 0 0 8-8Zm-42.55 89.78a8 8 0 0 0-5-1.78H88v-32h80a16 16 0 0 0 16-16V96h32v111.25Z" />
      </symbol>

</svg>
