<svg width="81" height="80" viewBox="0 0 81 80" fill="none" xmlns="http://www.w3.org/2000/svg">
<rect width="79.5116" height="80" transform="translate(0.541992)" fill="#291C3A"/>
<path d="M12.2289 71.3269L5.98352 0.844971H74.6119L68.3603 71.3162L40.2561 79.1556L12.2289 71.3269Z" fill="#1572B6"/>
<path d="M40.2983 73.1638L63.0082 66.8288L68.351 6.60754H40.2983V73.1638Z" fill="#33A9DC"/>
<path d="M40.2983 32.1431H51.6673L52.4524 23.2912H40.2983V14.6469H61.8422L61.636 16.9662L59.524 40.7875H40.2983V32.1431Z" fill="white"/>
<path d="M40.3493 54.5931L40.3114 54.6043L30.7433 52.005L30.1315 45.1106H21.5082L22.7114 58.6837L40.3102 63.5981L40.3493 63.5868V54.5931Z" fill="#EBEBEB"/>
<path d="M50.9367 40.4219L49.9018 51.9981L40.3195 54.6006V63.5944L57.9325 58.6831L58.0617 57.2225L59.5563 40.4219H50.9367Z" fill="white"/>
<path d="M40.3276 14.6469V23.2912H19.5751L19.403 21.3487L19.0116 16.9662L18.806 14.6469H40.3276ZM40.2984 32.1444V40.7887H30.8508L30.6787 38.8462L30.2868 34.4637L30.0818 32.1444H40.2984Z" fill="#EBEBEB"/>
</svg>
