<svg width="80" height="80" viewBox="0 0 80 80" fill="none" xmlns="http://www.w3.org/2000/svg">
<path fill-rule="evenodd" clip-rule="evenodd" d="M75 15C75 9.475 70.525 5 65 5H15C9.475 5 5 9.475 5 15V65C5 70.525 9.475 75 15 75H65C70.525 75 75 70.525 75 65V15Z" fill="#161616"/>
<path fill-rule="evenodd" clip-rule="evenodd" d="M48.7625 31.2625C53.6 31.2625 57.525 35.1875 57.525 40.025C57.525 44.8625 53.6 48.7874 48.7625 48.7874C43.925 48.7874 40 44.8625 40 40.025C40 35.1875 43.925 31.2625 48.7625 31.2625Z" fill="#0CC2FF"/>
<path fill-rule="evenodd" clip-rule="evenodd" d="M57.5 22.5C57.5 17.6625 53.5875 13.75 48.75 13.75H31.225C26.3875 13.75 22.475 17.6625 22.475 22.5C22.475 27.3375 26.3875 31.25 31.225 31.25H48.75C53.5875 31.25 57.5 27.3375 57.5 22.5Z" fill="#FF7568"/>
<path fill-rule="evenodd" clip-rule="evenodd" d="M39.9875 31.2625H31.225C28.9 31.2625 26.675 32.1875 25.0375 33.825C23.4 35.4625 22.475 37.6874 22.475 40.0124C22.475 42.3374 23.4 44.5624 25.0375 46.1999C26.675 47.8375 28.9 48.7624 31.225 48.7624H39.9875V31.2625Z" fill="#AF5BFF"/>
<path fill-rule="evenodd" clip-rule="evenodd" d="M39.9875 13.75H31.225C28.9 13.75 26.675 14.675 25.0375 16.3125C23.4 17.95 22.475 20.175 22.475 22.5C22.475 24.825 23.4 27.05 25.0375 28.6875C26.675 30.325 28.9 31.25 31.225 31.25H39.9875V13.75Z" fill="#FF4611"/>
<path fill-rule="evenodd" clip-rule="evenodd" d="M40 48.7375H31.2375C28.9125 48.7375 26.6876 49.6625 25.0501 51.3C23.4126 52.9375 22.4875 55.1625 22.4875 57.4875C22.4875 59.8125 23.4126 62.0375 25.0501 63.675C26.6876 65.3125 28.9125 66.2375 31.2375 66.2375C33.5625 66.2375 35.7875 65.3125 37.425 63.675C39.0625 62.0375 39.9875 59.8125 39.9875 57.4875V48.7375H40Z" fill="#00E681"/>
</svg>
