<svg width="60" height="63" viewBox="0 0 60 63" fill="none" xmlns="http://www.w3.org/2000/svg">
<path fill-rule="evenodd" clip-rule="evenodd" d="M30.0002 0C18.931 0 9.95435 9.44298 9.95435 21.0926C9.95435 30.4117 15.6979 38.3183 23.663 41.107C24.6647 41.3023 25.0327 40.6494 25.0327 40.0921C25.0327 39.5894 25.0138 37.9276 25.0053 36.1656C19.4281 37.4412 18.2516 33.6768 18.2516 33.6768C17.3399 31.2386 16.0258 30.5902 16.0258 30.5902C14.2071 29.2813 16.1625 29.3081 16.1625 29.3081C18.1758 29.4568 19.2359 31.482 19.2359 31.482C21.0235 34.7066 23.9254 33.774 25.069 33.2351C25.2494 31.8717 25.7686 30.9407 26.3421 30.4142C21.8895 29.8812 17.2089 28.0721 17.2089 19.99C17.2089 17.6872 17.992 15.8057 19.2745 14.3283C19.0663 13.7969 18.3802 11.6511 19.4686 8.74592C19.4686 8.74592 21.1517 8.17975 24.9813 10.909C26.5809 10.4415 28.296 10.207 29.9993 10.199C31.703 10.2075 33.419 10.442 35.021 10.909C38.8469 8.18025 40.528 8.74642 40.528 8.74642C41.6192 11.6516 40.9332 13.7969 40.7249 14.3288C42.0103 15.8052 42.7877 17.6872 42.7877 19.9905C42.7877 28.0915 38.0982 29.8752 33.6343 30.3968C34.3533 31.0512 34.9941 32.3353 34.9941 34.3035C34.9941 37.1254 34.9715 39.3966 34.9715 40.0911C34.9715 40.6514 35.3324 41.3097 36.3483 41.1025C44.3091 38.3103 50.0451 30.4067 50.0451 21.0907C50.0461 9.44347 41.0713 0 30.0002 0Z" fill="#181616"/>
<path d="M17.5472 30.2837C17.5025 30.3888 17.3456 30.42 17.2033 30.3481C17.0572 30.2787 16.9762 30.1364 17.0233 30.0308C17.0657 29.9238 17.2231 29.8935 17.3687 29.9654C17.5147 30.0348 17.5972 30.1786 17.5472 30.2837ZM18.3591 31.2376C18.2634 31.3303 18.0764 31.2871 17.9491 31.1394C17.8182 30.9921 17.7937 30.7953 17.8907 30.7011C17.9887 30.6079 18.1701 30.6515 18.3006 30.7988C18.4326 30.9475 18.4585 31.1424 18.3586 31.2371L18.3591 31.2376ZM19.1492 32.4512C19.0267 32.5414 18.8255 32.4572 18.7016 32.2693C18.5782 32.0823 18.5782 31.8578 18.704 31.767C18.8283 31.6768 19.0262 31.7581 19.1516 31.944C19.275 32.1349 19.275 32.36 19.1492 32.4512ZM20.232 33.6252C20.1222 33.7526 19.888 33.7184 19.717 33.5444C19.5417 33.3743 19.4932 33.1329 19.6029 33.0055C19.7146 32.8781 19.9497 32.9138 20.1222 33.0863C20.2965 33.2558 20.3493 33.4983 20.232 33.6252ZM21.7265 34.3064C21.6775 34.472 21.4523 34.5468 21.2252 34.4769C20.9981 34.4045 20.8501 34.2112 20.8954 34.0446C20.9425 33.878 21.1696 33.8002 21.3981 33.8751C21.6243 33.9465 21.7731 34.1378 21.7265 34.3064ZM23.3662 34.4328C23.3723 34.6063 23.1796 34.7511 22.9412 34.7541C22.7018 34.76 22.5077 34.6192 22.5049 34.4477C22.5049 34.2722 22.6933 34.1294 22.9327 34.1254C23.1711 34.1205 23.3662 34.2603 23.3662 34.4328ZM24.8928 34.1596C24.921 34.3292 24.7561 34.5037 24.5191 34.5498C24.2864 34.5954 24.0715 34.4903 24.0414 34.3218C24.0131 34.1482 24.1813 33.9747 24.4136 33.9291C24.6506 33.8855 24.8626 33.9871 24.8928 34.1596Z" fill="#181616"/>
<path d="M11.5563 52.9437H6.51485C6.45236 52.9437 6.39244 52.9698 6.34826 53.0163C6.30408 53.0628 6.27926 53.1258 6.27926 53.1916V55.7854C6.27926 55.8512 6.30408 55.9142 6.34826 55.9607C6.39244 56.0072 6.45236 56.0333 6.51485 56.0333H8.48103V59.2558C8.48103 59.2558 8.03955 59.4145 6.81781 59.4145C5.37792 59.4145 3.36556 58.8612 3.36556 54.2049C3.36556 49.5481 5.46131 48.9349 7.42891 48.9349C9.13171 48.9349 9.86485 49.2502 10.3323 49.4024C10.4783 49.449 10.615 49.2953 10.615 49.1585L11.1771 46.6523C11.178 46.6148 11.1702 46.5776 11.1545 46.5439C11.1387 46.5102 11.1154 46.4811 11.0866 46.459C10.8967 46.3162 9.74047 45.636 6.81875 45.636C3.45272 45.636 0 47.1421 0 54.3864C0 61.6296 3.9531 62.7089 7.28426 62.7089C10.0425 62.7089 11.7156 61.4685 11.7156 61.4685C11.7844 61.4288 11.7919 61.3272 11.7919 61.2801V53.1911C11.7919 53.1253 11.7671 53.0623 11.7229 53.0158C11.6788 52.9693 11.6188 52.9437 11.5563 52.9437ZM37.3062 46.2547H34.4669C34.4359 46.2548 34.4053 46.2614 34.3767 46.274C34.3482 46.2866 34.3222 46.305 34.3004 46.3282C34.2786 46.3514 34.2614 46.3788 34.2497 46.409C34.238 46.4392 34.2321 46.4715 34.2323 46.5041L34.2332 52.2769H29.808V46.5041C29.8082 46.4715 29.8023 46.4393 29.7906 46.4091C29.7789 46.379 29.7617 46.3515 29.74 46.3284C29.7183 46.3052 29.6924 46.2868 29.6639 46.2741C29.6354 46.2615 29.6048 46.2549 29.5738 46.2547H26.735C26.7041 46.2548 26.6734 46.2614 26.6448 46.274C26.6163 46.2866 26.5904 46.305 26.5686 46.3282C26.5468 46.3514 26.5295 46.3788 26.5178 46.409C26.5061 46.4392 26.5002 46.4715 26.5004 46.5041V62.1358C26.5004 62.2731 26.6059 62.3852 26.735 62.3852H29.5738C29.6048 62.385 29.6354 62.3784 29.664 62.3657C29.6925 62.353 29.7184 62.3345 29.7402 62.3113C29.7619 62.2881 29.7791 62.2606 29.7907 62.2304C29.8024 62.2002 29.8082 62.1679 29.808 62.1353V55.4493H34.2332L34.2257 62.1353C34.2257 62.2731 34.3312 62.3852 34.4613 62.3852H37.3062C37.3371 62.385 37.3678 62.3784 37.3963 62.3657C37.4249 62.353 37.4508 62.3345 37.4725 62.3113C37.4943 62.2881 37.5114 62.2606 37.5231 62.2304C37.5347 62.2002 37.5406 62.1679 37.5403 62.1353V46.5036C37.5403 46.3658 37.4367 46.2547 37.3062 46.2547ZM15.083 46.6102C14.0729 46.6102 13.253 47.4793 13.253 48.5551C13.253 49.6294 14.0729 50.501 15.083 50.501C16.0942 50.501 16.9135 49.6294 16.9135 48.5551C16.9135 47.4793 16.0937 46.6102 15.083 46.6102ZM16.4758 51.3736H13.646C13.5159 51.3736 13.4 51.5144 13.4 51.6512V61.989C13.4 62.293 13.58 62.3832 13.8128 62.3832H16.3618C16.6421 62.3832 16.7105 62.2384 16.7105 61.9841V58.8379V51.6229C16.7106 51.5904 16.7046 51.5581 16.6929 51.528C16.6812 51.4979 16.6639 51.4705 16.6421 51.4474C16.6203 51.4243 16.5944 51.4059 16.5659 51.3933C16.5374 51.3807 16.5068 51.3737 16.4758 51.3736ZM48.3296 51.3969H45.512C45.4811 51.3971 45.4505 51.4038 45.422 51.4165C45.3935 51.4292 45.3677 51.4477 45.346 51.4709C45.3243 51.4941 45.3072 51.5215 45.2956 51.5517C45.2839 51.5819 45.2781 51.6142 45.2783 51.6467V59.3114C45.2783 59.3114 44.5622 59.8617 43.5468 59.8617C42.5314 59.8617 42.2619 59.3773 42.2619 58.3307V51.6467C42.2622 51.6141 42.2563 51.5818 42.2447 51.5516C42.233 51.5214 42.2158 51.4939 42.1941 51.4707C42.1723 51.4475 42.1465 51.429 42.1179 51.4163C42.0894 51.4037 42.0587 51.3971 42.0278 51.3969H39.1687C39.1061 51.3974 39.0463 51.424 39.0023 51.4708C38.9584 51.5176 38.9338 51.5809 38.9341 51.6467V58.8364C38.9341 61.9449 40.5808 62.7054 42.8457 62.7054C44.704 62.7054 46.2023 61.6247 46.2023 61.6247C46.2023 61.6247 46.273 62.1948 46.306 62.2617C46.3389 62.3291 46.4223 62.3971 46.5133 62.3971L48.332 62.3886C48.363 62.3885 48.3938 62.3819 48.4224 62.3693C48.4511 62.3567 48.4771 62.3382 48.499 62.315C48.5208 62.2918 48.5382 62.2643 48.5499 62.2341C48.5617 62.2038 48.5677 62.1714 48.5676 62.1388L48.5662 51.6452C48.5659 51.5795 48.541 51.5165 48.4969 51.4699C48.4528 51.4233 48.3931 51.3969 48.3306 51.3964L48.3296 51.3969ZM56.0295 51.0459C54.4294 51.0459 53.341 51.797 53.341 51.797V46.5036C53.3412 46.471 53.3353 46.4388 53.3236 46.4086C53.3119 46.3785 53.2947 46.351 53.273 46.3279C53.2512 46.3047 53.2254 46.2863 53.1969 46.2737C53.1683 46.261 53.1377 46.2544 53.1068 46.2542H50.2605C50.2294 46.2542 50.1987 46.2607 50.17 46.2732C50.1413 46.2858 50.1153 46.3042 50.0934 46.3273C50.0715 46.3505 50.0542 46.378 50.0424 46.4083C50.0307 46.4385 50.0247 46.4709 50.0249 46.5036V62.1353C50.0247 62.168 50.0307 62.2004 50.0424 62.2306C50.0542 62.2609 50.0715 62.2884 50.0934 62.3115C50.1153 62.3347 50.1413 62.3531 50.17 62.3657C50.1987 62.3782 50.2294 62.3847 50.2605 62.3847H52.2356C52.3251 62.3847 52.392 62.3366 52.4415 62.2518C52.49 62.1675 52.5612 61.531 52.5612 61.531C52.5612 61.531 53.725 62.6911 55.9291 62.6911C58.5158 62.6911 60 61.3108 60 56.4929C60 51.675 57.63 51.0454 56.029 51.0454L56.0295 51.0459ZM54.9175 59.8528C53.9408 59.8215 53.2778 59.355 53.2778 59.355V54.4047C53.2778 54.4047 53.9318 53.9833 54.7338 53.907C55.7482 53.8113 56.7258 54.134 56.7258 56.6803C56.7258 59.3659 56.2853 59.8959 54.918 59.8523L54.9175 59.8528ZM24.9093 59.7943C24.7853 59.7943 24.4678 59.8473 24.1413 59.8473C23.0953 59.8473 22.7405 59.3357 22.7405 58.6733V54.2778H24.8702C24.9013 54.2778 24.932 54.2713 24.9607 54.2587C24.9895 54.2462 25.0155 54.2277 25.0374 54.2045C25.0593 54.1813 25.0766 54.1537 25.0883 54.1234C25.1001 54.0931 25.106 54.0606 25.1057 54.0279V51.6205C25.1059 51.5878 25.0999 51.5555 25.0881 51.5253C25.0763 51.4951 25.059 51.4677 25.0371 51.4445C25.0152 51.4214 24.9892 51.4031 24.9605 51.3905C24.9319 51.378 24.9012 51.3716 24.8702 51.3716H22.7405L22.7372 48.4118C22.7372 48.2993 22.6825 48.2433 22.5591 48.2433H19.6567C19.5445 48.2433 19.4838 48.2958 19.4838 48.4093V51.4683C19.4838 51.4683 18.0293 51.8376 17.9313 51.8674C17.8823 51.8824 17.8393 51.9137 17.8088 51.9566C17.7782 51.9995 17.7616 52.0517 17.7616 52.1053V54.0274C17.7615 54.06 17.7674 54.0923 17.779 54.1224C17.7907 54.1526 17.8079 54.18 17.8296 54.2032C17.8514 54.2263 17.8772 54.2447 17.9058 54.2574C17.9343 54.27 17.9649 54.2766 17.9958 54.2768H19.4838V58.9014C19.4838 62.3371 21.7736 62.6742 23.3191 62.6742C24.0244 62.6742 24.8692 62.4362 25.0087 62.3817C25.0935 62.3485 25.142 62.2568 25.142 62.1571L25.1439 60.0426C25.1429 59.9771 25.1178 59.9146 25.0739 59.8681C25.0299 59.8217 24.9706 59.795 24.9083 59.7938L24.9093 59.7943Z" fill="#100E0F"/>
</svg>
