<svg width="80" height="80" viewBox="0 0 80 80" fill="none" xmlns="http://www.w3.org/2000/svg">
<g clip-path="url(#clip0_96_6)">
<path d="M8.18374e-06 39.9814C8.18374e-06 43.8836 0.562196 47.6539 1.60407 51.2192L23.6728 43.9907C23.0576 41.3345 23.1075 38.5675 23.8181 35.9351L1.5922 28.7842C0.533674 32.4223 -0.00241585 36.1924 8.18374e-06 39.9814Z" fill="#6A7A55"/>
<path d="M29.2491 27.4839L15.2956 8.52417C9.435 13.1326 4.895 19.3432 2.33313 26.4954L24.6109 33.6632C25.6505 31.2679 27.2394 29.151 29.2491 27.4839Z" fill="#A09440"/>
<path d="M38.8159 23.6987V0C30.8072 0.232812 23.39 2.82094 17.23 7.09375L31.2065 26.085C33.5094 24.6787 36.1224 23.8593 38.8159 23.6987Z" fill="#AFA148"/>
<path d="M24.3888 46.2876L2.34753 53.507C4.94628 60.7398 9.56753 67.0079 15.5322 71.626L29.1357 52.9098C27.0284 51.1305 25.3971 48.8547 24.3888 46.2876Z" fill="#4C5C59"/>
<path d="M17.4794 73.039C23.59 77.2096 30.9147 79.7325 38.8159 79.9625V56.79C36.0724 56.6259 33.4135 55.7786 31.0809 54.325L17.4794 73.039Z" fill="#48555D"/>
<path d="M62.5462 6.94115C56.4403 2.76678 49.1194 0.23834 41.2216 0.00146484V23.7283C43.831 23.9453 46.3513 24.7807 48.5737 26.1652L62.5462 6.94115Z" fill="#E3B23B"/>
<path d="M41.2216 56.7604V79.9611C49.1812 79.7223 56.5553 77.1561 62.69 72.9229L48.8634 54.1357C46.5733 55.6311 43.9471 56.533 41.2216 56.7604Z" fill="#903024"/>
<path d="M50.7797 52.6802L64.6287 71.498C70.5765 66.8443 75.1706 60.5424 77.7312 53.2811L55.3409 46.0774C54.3831 48.6181 52.817 50.8852 50.7797 52.6802Z" fill="#D65841"/>
<path d="M80 39.9812C80 36.0306 79.425 32.215 78.3581 28.6106L55.8444 35.9847C56.5227 38.5286 56.5847 41.1976 56.0253 43.7703L78.4615 50.989C79.484 47.4092 80.0019 43.7042 80 39.9812Z" fill="#E6703E"/>
<path d="M55.0588 33.7106L77.6069 26.325C75.0031 19.1572 70.4094 12.9444 64.4922 8.35596L50.5178 27.5828C52.4859 29.246 54.0404 31.3438 55.0588 33.7106Z" fill="#F4A83A"/>
</g>
<defs>
<clipPath id="clip0_96_6">
<rect width="80" height="80" fill="white"/>
</clipPath>
</defs>
</svg>
