<svg width="121" height="80" viewBox="0 0 121 80" fill="none" xmlns="http://www.w3.org/2000/svg">
<g clip-path="url(#clip0_38_69)">
<path d="M103.999 45.9584C99.7921 45.9794 96.1492 46.875 93.094 48.2086C91.9659 46.2294 90.8378 44.5 90.65 43.2086C90.4385 41.7086 90.1799 40.7917 90.4385 39.0003C90.6967 37.2084 91.8719 34.6667 91.8719 34.4584C91.8481 34.2709 91.6131 33.3542 89.1926 33.3334C86.7721 33.3125 84.6802 33.75 84.4452 34.3125C84.2102 34.875 83.7401 36.1667 83.4346 37.5C83.0116 39.4584 78.5932 46.3959 76.0785 50.0417C75.2559 48.625 74.5508 47.375 74.4096 46.3748C74.1983 44.875 73.9395 43.9582 74.1983 42.1667C74.4568 40.3748 75.6319 37.8334 75.6319 37.625C75.6084 37.4375 75.3734 36.5209 72.9529 36.5C70.532 36.4792 68.4405 36.9167 68.2055 37.4792C67.9705 38.0417 67.712 39.375 67.1949 40.6667C66.7011 41.9584 60.8256 53.5417 59.298 56.5625C58.5224 58.1042 57.8411 59.3334 57.3473 60.1667C56.8538 61 57.3238 60.2292 57.2768 60.3125C56.8538 61.0209 56.6188 61.4167 56.6188 61.4167V61.4378C56.2897 61.9586 55.9372 62.4584 55.7724 62.4584C55.6549 62.4584 55.4199 61.0625 55.8194 59.1461C56.689 55.125 58.8042 48.8544 58.7809 48.6253C58.7809 48.5211 59.1802 47.4167 57.4176 46.8544C55.7019 46.2919 55.0911 47.2294 54.9499 47.2294C54.8089 47.2294 54.6913 47.5628 54.6913 47.5628C54.6913 47.5628 56.595 40.5005 51.0485 40.5005C47.5702 40.5005 42.7758 43.8546 40.4021 46.9171C38.898 47.6463 35.7017 49.1878 32.3174 50.8338C31.0248 51.4588 29.6852 52.1255 28.416 52.7296L28.1578 52.4792C21.4362 46.125 9.00357 41.625 9.52061 33.0834C9.70863 29.9792 10.9307 21.7917 33.3989 11.875C51.8011 3.75004 66.5369 5.97921 69.0984 10.9375C72.7412 18.0209 61.2252 31.1875 42.0947 33.0834C34.8091 33.8125 30.978 31.3125 30.0146 30.375C29.0041 29.3959 28.863 29.3542 28.487 29.5417C27.876 29.8334 28.252 30.7084 28.487 31.2292C29.0511 32.5417 31.4013 34.875 35.3966 36.0417C38.8982 37.0625 47.4532 37.625 57.7941 34.0834C69.3806 30.1042 78.4289 19.0625 75.7732 9.83338C73.0704 0.437545 55.4909 -2.64579 38.8749 2.58338C28.9803 5.70838 18.2634 10.5834 10.5547 16.9792C1.3889 24.5625 -0.068231 31.1875 0.542823 33.9375C2.68175 43.75 17.9344 50.1459 24.0449 54.875C23.7394 55.0207 23.4573 55.1665 23.1988 55.2917C20.1435 56.6248 8.51002 62.0209 5.59577 67.729C2.30548 74.1873 6.11281 78.8334 8.65104 79.4584C16.5007 81.3959 24.5384 77.9167 28.8863 72.1875C33.2105 66.4584 32.6936 59.0209 30.696 55.625L30.6252 55.5L33.0224 54.25C34.5738 53.4375 36.1014 52.6875 37.4408 52.0415C36.689 53.854 36.1482 55.9998 35.8664 59.1248C35.5374 62.7917 37.2295 67.5415 39.4622 69.4165C40.4493 70.2288 41.6244 70.2498 42.353 70.2498C44.9382 70.2498 46.1133 68.3538 47.4059 66.0832C49.0041 63.3123 50.4142 60.104 50.4142 60.104C50.4142 60.104 48.6516 68.7915 53.4695 68.7915C55.2321 68.7915 56.9948 66.7707 57.7939 65.729V65.7498C57.7939 65.7498 57.8409 65.6873 57.9349 65.5415C58.0335 65.4123 58.1275 65.2803 58.2169 65.1459V65.1042C58.922 64.0209 60.4966 61.5417 62.8468 57.4375C65.8783 52.1459 68.7928 45.5209 68.7928 45.5209C68.7928 45.5209 69.0749 47.1459 69.9444 49.8125C70.4612 51.3961 71.5893 53.125 72.4589 54.8125C71.7538 55.6875 71.3308 56.1878 71.3308 56.1878L71.3543 56.2086C70.7905 56.8753 70.1557 57.5838 69.4979 58.2919C67.1007 60.8336 64.2334 63.7296 63.8574 64.563C63.4108 65.5419 63.5049 66.2711 64.3744 66.8546C65.009 67.2713 66.1371 67.3544 67.3357 67.2713C69.4979 67.1461 71.002 66.6671 71.7541 66.3753C72.9292 66.0003 74.2688 65.4378 75.5614 64.6044C77.9116 63.063 79.3453 60.8755 79.2042 57.9588C79.1337 56.3546 78.5462 54.7713 77.8176 53.2713C78.0291 53.0005 78.2409 52.7294 78.4522 52.438C82.1655 47.6253 85.0328 42.3338 85.0328 42.3338C85.0328 42.3338 85.3148 43.9588 86.1843 46.6255C86.6307 47.9796 87.524 49.459 88.323 50.9173C84.8447 53.4382 82.659 56.3548 81.907 58.2715C80.5204 61.8132 81.6014 63.4173 83.6461 63.7923C84.5625 63.959 85.8788 63.584 86.8657 63.209C88.0878 62.8548 89.5684 62.2505 90.9318 61.3548C93.282 59.8132 95.5382 57.6673 95.4207 54.7715C95.3502 53.4382 94.9506 52.1257 94.4101 50.8757C97.3713 49.7923 101.202 49.1673 106.067 49.6882C116.526 50.7715 118.594 56.5632 118.194 58.9798C117.795 61.3967 115.609 62.7298 114.88 63.1465C114.152 63.5423 113.917 63.6884 113.987 63.9798C114.081 64.4175 114.41 64.3965 115.045 64.3134C115.914 64.1882 120.544 62.3342 120.732 57.8761C121.014 52.1461 114.88 45.8961 103.999 45.9584ZM23.3398 70.0625C19.885 73.4167 15.0201 74.6875 12.9519 73.6042C10.7192 72.4584 11.5886 67.5209 15.8427 63.9584C18.4279 61.7917 21.7887 59.7917 23.9979 58.5625C24.4914 58.2917 25.2435 57.8961 26.1366 57.4167C26.2776 57.3336 26.3716 57.2917 26.3716 57.2917C26.5361 57.2084 26.7241 57.1042 26.9121 57C28.4868 62.0834 26.9826 66.5417 23.3398 70.0625ZM48.6045 54.8334C47.4059 57.4375 44.8677 64.125 43.3401 63.75C42.0237 63.4375 41.2249 58.375 43.0813 53.375C44.0214 50.854 46.0191 47.8542 47.1942 46.6873C49.0981 44.8123 51.166 44.1873 51.6833 44.9582C52.2944 45.9584 49.3566 53.2084 48.6045 54.8334ZM69.4509 63.6667C68.9338 63.8961 68.4638 64.0625 68.2523 63.9378C68.0878 63.8544 68.4636 63.5419 68.4636 63.5419C68.4636 63.5419 71.0723 61.0628 72.1064 59.9169C72.6939 59.2505 73.399 58.4796 74.1511 57.6044V57.8544C74.1513 60.8542 70.908 62.8542 69.4509 63.6667ZM85.5261 60.4167C85.15 60.1667 85.1973 59.3959 86.4661 56.9792C86.9599 56.0209 88.0878 54.4167 90.0385 52.8959C90.2735 53.5209 90.4147 54.1248 90.391 54.6875C90.3677 58.4375 87.3595 59.8334 85.5261 60.4167Z" fill="#CF649A"/>
</g>
<defs>
<clipPath id="clip0_38_69">
<rect width="120.331" height="80" fill="white" transform="translate(0.448853)"/>
</clipPath>
</defs>
</svg>
